# xmcd
#
# Track frame offsets: 
#        150
#        13197
#        26741
#        41367
#        53009
#        63782
#        77038
#        90506
#        104153
#        123542
#        139668
#        151533
#        165502
#        176379
#        186024
#        207350
#        218489
#        230000
#        243760
#        263564
#        275720
#        290397
#
# Disc length: 4042 seconds
#
# Revision: 1
# Processed by: cddbd v1.5.1PL2 Copyright (c) Steve Scherf et al.
# Submitted via: ExactAudioCopy v0.95b3
#
DISCID=250fc816
DTITLE=Andy Williams - The Moon River Collection [CD2]
DYEAR=2003
DGENRE=Vocal
TTITLE0=The look of love
TTITLE1=Feelings
TTITLE2=Can't take my eyes off you
TTITLE3=Up up and away
TTITLE4=Can't get used to losing you
TTITLE5=Dear heart
TTITLE6=Somethin' stupid
TTITLE7=My cherie amour
TTITLE8=Killing me softly with her song
TTITLE9=Candida
TTITLE10=Music to watch girls by
TTITLE11=The shadow of your smile
TTITLE12=The more I see you
TTITLE13=What now my love
TTITLE14=You've got a friend
TTITLE15=You are my sunshine
TTITLE16=More
TTITLE17=Quiet night of quiet stars
TTITLE18=Solitaire
TTITLE19=I think I love you
TTITLE20=Happy heart
TTITLE21=May each day
EXTD=YEAR: 2003
EXTT0=
EXTT1=
EXTT2=
EXTT3=
EXTT4=
EXTT5=
EXTT6=
EXTT7=
EXTT8=
EXTT9=
EXTT10=
EXTT11=
EXTT12=
EXTT13=
EXTT14=
EXTT15=
EXTT16=
EXTT17=
EXTT18=
EXTT19=
EXTT20=
EXTT21=
PLAYORDER=
